Coordinates
version=1
nRows=5
nColumns=63
inDegrees=yes

Units are S.I. units (second, meters, Newtons, ...)
If the header above contains a line with 'inDegrees', this indicates whether rotational values are in degrees (yes) or radians (no).

endheader
time	pelvis_tilt	pelvis_list	pelvis_rotation	pelvis_tx	pelvis_ty	pelvis_tz	hip_flexion_r	hip_adduction_r	hip_rotation_r	knee_angle_r	knee_angle_r_beta	ankle_angle_r	subtalar_angle_r	mtp_angle_r	hip_flexion_l	hip_adduction_l	hip_rotation_l	knee_angle_l	knee_angle_l_beta	ankle_angle_l	subtalar_angle_l	mtp_angle_l	L5_S1_Flex_Ext	L5_S1_Lat_Bending	L5_S1_axial_rotation	L4_L5_Flex_Ext	L4_L5_Lat_Bending	L4_L5_axial_rotation	L3_L4_Flex_Ext	L3_L4_Lat_Bending	L3_L4_axial_rotation	L2_L3_Flex_Ext	L2_L3_Lat_Bending	L2_L3_axial_rotation	L1_L2_Flex_Ext	L1_L2_Lat_Bending	L1_L2_axial_rotation	L1_T12_Flex_Ext	L1_T12_Lat_Bending	L1_T12_axial_rotation	Abs_r3	Abs_r2	Abs_r1	Abs_t1	Abs_t2	neck_flexion	neck_bending	neck_rotation	arm_flex_r	arm_add_r	arm_rot_r	elbow_flex_r	pro_sup_r	wrist_flex_r	wrist_dev_r	arm_flex_l	arm_add_l	arm_rot_l	elbow_flex_l	pro_sup_l	wrist_flex_l	wrist_dev_l
      1.20000000	     -0.14284764	     -3.54968326	     85.35936663	      0.19058404	      0.88891255	      0.64594849	      2.16734828	     -2.08272184	     -0.80573700	      9.91617214	      0.17306985	     29.94439469	     13.85908152	      0.00000000	      2.45859067	      0.92204458	      6.96365525	     10.85035178	      0.18937436	     26.73234215	    -10.16454698	      0.00000000	     -0.33735704	      0.32227577	      0.42363437	     -0.62650577	      0.42862678	      0.45011152	     -0.55424389	      0.78358132	      0.45011152	     -0.38556537	      0.78358132	      0.37068007	     -0.31326975	      0.65718476	      0.34420292	     -0.19276581	      0.49920517	      0.31772578	     -2.40970763	      3.64564800	      2.35612726	      0.00000000	      0.00000000	     19.42809975	     -1.10944421	      4.36988135	     12.38228779	    -13.99189198	    131.92000033	      6.79392921	      4.40277469	     -0.42126793	     -8.31996522	      4.72585493	    -14.26204486	     57.71742142	     23.90049623	     63.24660198	    -10.09754729	     -6.78138692
      1.21666667	      0.01163634	     -3.65117188	     85.59535385	      0.18996036	      0.88853818	      0.64589004	      2.20601347	     -1.89492190	     -0.59909155	      9.61824287	      0.16787001	     29.99131130	     13.83068053	      0.00000000	      2.61694436	      0.79764669	      7.45824714	     10.84336316	      0.18925239	     27.05448663	    -10.13511550	      0.00000000	     -0.34878321	      0.35493545	      0.44930079	     -0.64772530	      0.47206416	      0.47738209	     -0.57301593	      0.86299007	      0.47738209	     -0.39862433	      0.86299007	      0.39313819	     -0.32388009	      0.72378438	      0.36505689	     -0.19929473	      0.54979502	      0.33697559	     -2.49132358	      4.01510085	      2.49887620	      0.00000000	      0.00000000	     19.85040020	     -1.64016195	      4.22201729	     11.50820189	    -14.17075299	    131.78472041	      5.72033780	      4.39047443	      0.43762093	     -7.03368581	      4.60704981	    -14.18473181	     57.78426628	     23.65630423	     62.45806100	     -9.52872807	     -6.39636964
      1.23333333	      0.19432853	     -3.72093778	     85.85293398	      0.18931820	      0.88824677	      0.64563260	      2.15732130	     -1.64393224	     -0.01943265	      9.18707640	      0.16034473	     30.01731409	     13.28886438	      0.00000000	      2.69054017	      0.65613337	      8.09881884	     10.78869676	      0.18829828	     27.11440403	    -10.39789846	      0.00000000	     -0.36195599	      0.39113411	      0.50324424	     -0.67218847	      0.52020836	      0.53469700	     -0.59465749	      0.95100347	      0.53469700	     -0.41367950	      0.95100347	      0.44033871	     -0.33611233	      0.79760067	      0.40888594	     -0.20682165	      0.60586673	      0.37743318	     -2.58541543	      4.42458724	      2.79889347	      0.00000000	      0.00000000	     20.33668919	     -2.19062410	      4.01582319	     10.54658616	    -14.30335625	    133.47317624	      4.34128455	      4.07481880	      1.16604120	     -5.96358476	      5.61742174	    -14.19259221	     64.95642455	     22.72506891	     54.51301725	     -9.58719314	     -7.32498794
      1.25000000	      0.35136974	     -3.81072722	     86.13758301	      0.18889255	      0.88777817	      0.64507632	      2.11200381	     -1.44092860	      0.10072944	      8.75793201	      0.15285475	     30.19450248	     13.33690488	      0.00000000	      2.78787154	      0.49938638	      8.34450623	     10.80098559	      0.18851276	     27.24186528	    -10.17718684	      0.00000000	     -0.36659887	      0.41813738	      0.51040737	     -0.68081076	      0.55612271	      0.54230784	     -0.60228528	      1.01665922	      0.54230784	     -0.41898585	      1.01665922	      0.44660645	     -0.34042371	      0.85266574	      0.41470599	     -0.20947459	      0.64769480	      0.38280553	     -2.61857907	      4.73005365	      2.83873270	      0.00000000	      0.00000000	     20.85193204	     -2.53323413	      3.95915662	      9.72309911	    -14.37517435	    134.21027511	      3.39214464	      4.68711850	      1.17969214	     -4.87001208	      5.42975087	    -14.05340616	     65.36251838	     22.29022828	     54.39197299	     -9.38966894	     -6.48264794
      1.26666667	      0.50034809	     -3.84856326	     86.61003514	      0.18818013	      0.88729375	      0.64449562	      1.95758639	     -1.25016157	      0.22348804	      8.29246263	      0.14473078	     30.38191546	     13.07390361	      0.00000000	      2.87873357	      0.33540346	      8.40404463	     10.90653442	      0.19035494	     27.42028142	     -9.53572662	      0.00000000	     -0.37420395	      0.44201846	      0.46765645	     -0.69493416	      0.58788455	      0.49688497	     -0.61477968	      1.07472369	      0.49688497	     -0.42767770	      1.07472369	      0.40919939	     -0.34748579	      0.90136405	      0.37997086	     -0.21382014	      0.68468660	      0.35074234	     -2.67290143	      5.00020124	      2.60096486	      0.00000000	      0.00000000	     21.41736920	     -2.73883787	      3.95287234	      9.05580806	    -14.47376038	    135.90697534	      2.69064869	      5.02618423	      1.04256776	     -4.29675546	      5.44306006	    -13.92856276	     67.02820039	     21.65365533	     54.05711848	     -9.23629983	     -5.71890692
